<svg height="495pt" viewBox="-111 0 495 495.992" width="495pt" xmlns="http://www.w3.org/2000/svg"><path d="m200.496094 72c-.015625 4.324219-.445313 8.636719-1.277344 12.878906-.242188.960938-.480469 1.921875-.800781 2.882813-.699219-2.671875-1.582031-5.292969-2.640625-7.839844-2.035156-5.132813-4.78125-9.957031-8.160156-14.320313-12.054688-16.113281-30.996094-25.601562-51.121094-25.601562-20.121094 0-39.066406 9.488281-51.117188 25.601562-3.378906 4.363282-6.128906 9.1875-8.160156 14.320313-1.058594 2.546875-1.941406 5.167969-2.640625 7.839844-.320313-.960938-.5625-1.921875-.800781-2.882813-.832032-4.242187-1.261719-8.554687-1.28125-12.878906 0-1.359375.082031-2.71875.160156-4 .054688-1.234375.1875-2.464844.402344-3.679688.984375-8.589843 3.765625-16.875 8.160156-24.320312 11.367188-19.792969 32.453125-31.996094 55.277344-31.996094 22.828125 0 43.910156 12.203125 55.28125 31.996094 4.394531 7.445312 7.171875 15.730469 8.160156 24.320312.210938 1.214844.34375 2.445313.398438 3.679688.082031 1.28125.160156 2.640625.160156 4zm0 0" fill="#acabb1"/><path d="m264.496094 272c0 17.671875-14.324219 32-32 32h-24v-32zm0 0" fill="#898890"/><path d="m64.496094 272v32h-24c-17.671875 0-32-14.328125-32-32zm0 0" fill="#898890"/><path d="m264.496094 272h-56v216h-144v-216h-56l29.359375-139.28125c1.523437-7.40625 8.042969-12.722656 15.601562-12.71875h40.800781c24.121094 21.332031 60.359376 21.332031 84.480469 0h40.800781c7.558594-.003906 14.078126 5.3125 15.597657 12.71875zm0 0" fill="#acabb1"/><path d="m88.496094 176h96v128h-96zm0 0" fill="#898890"/><path d="m136.496094 236c0 6.628906-5.371094 12-12 12-6.625 0-12-5.371094-12-12s5.375-12 12-12c6.628906 0 12 5.371094 12 12zm0 0" fill="#acabb1"/><path d="m136.496094 484c.003906 1.335938-.078125 2.671875-.238282 4h-71.519531c-.164062-1.328125-.242187-2.664062-.242187-4 0-19.882812 16.117187-36 36-36 19.882812 0 36 16.117188 36 36zm0 0" fill="#898890"/><path d="m208.496094 484c.003906 1.335938-.078125 2.671875-.238282 4h-71.519531c-.164062-1.328125-.242187-2.664062-.242187-4 0-19.882812 16.117187-36 36-36 19.882812 0 36 16.117188 36 36zm0 0" fill="#898890"/><path d="m232.496094 48v72h-53.757813c9.664063-8.445312 16.527344-19.636719 19.679688-32.078125v-.160156c.320312-.960938.558593-1.921875.800781-2.882813.832031-4.242187 1.261719-8.554687 1.277344-12.878906 0-1.359375-.078125-2.71875-.160156-4-.054688-1.234375-.1875-2.464844-.398438-3.679688-.988281-8.589843-3.765625-16.875-8.160156-24.320312h32.71875c4.417968 0 8 3.582031 8 8zm0 0" fill="#898890"/><path d="m94.257812 120h-53.761718v-72c0-4.417969 3.582031-8 8-8h32.722656c-4.394531 7.445312-7.175781 15.730469-8.160156 24.320312-.214844 1.214844-.347656 2.445313-.402344 3.679688-.078125 1.28125-.160156 2.640625-.160156 4 .019531 4.324219.449218 8.636719 1.28125 12.878906.238281.960938.480468 1.921875.800781 2.882813v.160156c3.148437 12.441406 10.011719 23.632813 19.679687 32.078125zm0 0" fill="#898890"/><path d="m198.417969 87.761719v.160156c-7.257813 28.265625-32.738281 48.03125-61.921875 48.03125s-54.660156-19.765625-61.917969-48.03125v-.160156c.699219-2.671875 1.582031-5.292969 2.640625-7.839844 2.03125-5.132813 4.78125-9.957031 8.160156-14.320313 12.050782-16.113281 30.996094-25.601562 51.117188-25.601562 20.125 0 39.066406 9.488281 51.121094 25.601562 3.378906 4.363282 6.125 9.1875 8.160156 14.320313 1.058594 2.546875 1.941406 5.167969 2.640625 7.839844zm0 0" fill="#1a6fb0"/><g fill="#231f20"><path d="m124.777344 57.433594c-4.609375 1.148437-9.019532 2.984375-13.078125 5.445312-3.785157 2.285156-5 7.203125-2.714844 10.984375s7.203125 4.996094 10.984375 2.710938c2.707031-1.632813 5.644531-2.851563 8.710938-3.613281 4.289062-1.070313 6.898437-5.414063 5.828124-9.699219-1.066406-4.289063-5.410156-6.898438-9.699218-5.828125zm0 0"/><path d="m180.496094 84.800781c-5.859375-13.722656-17.851563-23.875-32.351563-27.394531-4.292969-1.054688-8.628906 1.566406-9.6875 5.859375-1.058593 4.289063 1.5625 8.628906 5.855469 9.6875 9.636719 2.328125 17.605469 9.070313 21.496094 18.191406 1.277344 2.921875 4.164062 4.808594 7.351562 4.800781 1.101563 0 2.191406-.222656 3.199219-.65625 4.027344-1.765624 5.875-6.449218 4.136719-10.488281zm0 0"/><path d="m272.328125 270.351562-29.351563-139.230468c-.582031-2.800782-1.664062-5.476563-3.199218-7.890625.464844-1.011719.710937-2.113281.71875-3.230469v-72c0-8.835938-7.164063-16-16-16h-28.160156c-9.460938-14.191406-23.65625-24.554688-40.054688-29.246094-.800781-.226562-1.601562-.378906-2.449219-.578125-5.667969-1.425781-11.488281-2.1562498-17.335937-2.175781-2.398438 0-4.796875.136719-7.109375.359375-21.460938 2.113281-40.847657 13.71875-52.839844 31.640625h-28.050781c-8.835938 0-16 7.164062-16 16v72c.007812 1.105469.25 2.195312.707031 3.199219-1.53125 2.402343-2.617187 5.0625-3.203125 7.847656l-29.359375 139.28125c-.105469.550781-.152344 1.109375-.144531 1.671875.027344 22.082031 17.921875 39.972656 40 40h16v176c.039062 2.320312 1.105468 4.5 2.914062 5.953125.175782.160156.398438.238281.589844.382813.542969.429687 1.136719.789062 1.769531 1.070312.925781.378906 1.917969.578125 2.917969.585938h143.808594c.890625-.027344 1.769531-.207032 2.601562-.527344 3.207032-1.082032 5.375-4.078125 5.398438-7.464844v-176h16c22.082031-.027344 39.976562-17.917969 40-40 0-.554688-.054688-1.105469-.167969-1.648438zm-47.832031-222.351562v64h-28.152344c4.503906-6.757812 7.824219-14.234375 9.824219-22.105469 0-.125.066406-.253906.089843-.398437.269532-.910156.519532-1.886719.800782-3.105469.933594-4.738281 1.414062-9.558594 1.4375-14.390625 0-1.527344-.085938-3.0625-.191406-4.734375-.058594-1.296875-.203126-2.585937-.421876-3.867187-.628906-5.25-1.835937-10.414063-3.609374-15.398438zm-54.167969 68.601562c-1.34375 1.015626-2.816406 1.855469-4.246094 2.75-1.089843.6875-2.121093 1.457032-3.257812 2.0625-1.597657.84375-3.253907 1.464844-4.910157 2.152344-1.113281.464844-2.175781 1.035156-3.328124 1.425782-1.917969.601562-3.867188 1.097656-5.839844 1.488281-1.007813.230469-1.960938.574219-2.984375.742187-3.0625.515625-6.160157.773438-9.265625.777344-3.101563-.015625-6.203125-.28125-9.261719-.800781-1.015625-.175781-1.96875-.519531-2.96875-.742188-1.976563-.390625-3.925781-.886719-5.847656-1.488281-1.121094-.382812-2.160157-.945312-3.257813-1.402344-1.691406-.640625-3.355468-1.367187-4.976562-2.175781-1.101563-.589844-2.101563-1.34375-3.160156-2-1.460938-.910156-2.972657-1.765625-4.351563-2.816406-1.015625-.796875-1.917969-1.695313-2.886719-2.542969-1.273437-1.109375-2.582031-2.167969-3.75-3.390625-.914062-.960937-1.683594-2.046875-2.53125-3.066406-1.054687-1.277344-2.160156-2.519531-3.101562-3.886719-.800782-1.128906-1.386719-2.398438-2.074219-3.550781-.800781-1.425781-1.703125-2.808594-2.398437-4.3125-.59375-1.28125-1.023438-2.65625-1.519532-4s-1.074218-2.71875-1.488281-4.136719c.496094-1.628906 1.078125-3.230469 1.734375-4.800781 8.601562-21.101563 29.128906-34.886719 51.917969-34.863281 22.785156.023437 43.285156 13.847656 51.84375 34.96875.640625 1.539062 1.199219 3.109374 1.679687 4.703124-.398437 1.402344-.9375 2.71875-1.441406 4.066407-.503906 1.34375-.941406 2.734375-1.550781 4-.6875 1.46875-1.542969 2.839843-2.351563 4.230469-.703125 1.222656-1.34375 2.488281-2.136718 3.640624-.910157 1.34375-1.984376 2.542969-3.007813 3.78125-.871094 1.066407-1.671875 2.195313-2.617187 3.203126-1.136719 1.183593-2.398438 2.214843-3.648438 3.292968-1.015625.921875-1.949219 1.882813-3.015625 2.691406zm-79.085937-77.503906c.480468-.664062.933593-1.34375 1.445312-1.976562.515625-.632813 1.097656-1.289063 1.65625-1.921875.5625-.632813 1.035156-1.230469 1.601562-1.816407.566407-.582031 1.214844-1.183593 1.832032-1.773437.617187-.59375 1.128906-1.121094 1.726562-1.648437.601563-.527344 1.328125-1.089844 1.992188-1.601563.664062-.511719 1.21875-1.007813 1.855468-1.480469.640626-.472656 1.441407-.976562 2.160157-1.453125.722656-.480469 1.289062-.898437 1.960937-1.296875.671875-.402344 1.535156-.855468 2.3125-1.273437.777344-.414063 1.351563-.800781 2.054688-1.121094.707031-.320313 1.648437-.726563 2.472656-1.085937.824219-.359376 1.394531-.640626 2.105469-.914063.878906-.335937 1.792969-.605469 2.6875-.894531.695312-.230469 1.382812-.496094 2.097656-.695313.957031-.273437 1.941406-.464843 2.925781-.6875.671875-.152343 1.34375-.34375 2.03125-.472656 1.152344-.214844 2.320313-.351563 3.496094-.496094.535156-.0625 1.066406-.167969 1.601562-.222656 1.726563-.175781 3.472657-.265625 5.238282-.265625s3.511718.078125 5.242187.238281c.453125.050781.894531.136719 1.34375.195313 1.269531.140625 2.535157.292968 3.773438.527344.417969.078124.800781.199218 1.226562.285156 1.261719.265625 2.527344.539062 3.757813.890625.273437.070312.539062.183593.800781.261719 1.359375.417968 2.703125.847656 4 1.355468l.121094.054688c16.074219 6.289062 28.351562 19.644531 33.273437 36.191406-13.609375-15.285156-33.101562-24.03125-53.570312-24.03125-20.464844 0-39.957032 8.746094-53.566406 24.03125.136718-.449219.230468-.894531.367187-1.335938.261719-.800781.574219-1.601562.863281-2.398437.289063-.800781.578125-1.601563.90625-2.402344.324219-.800781.703125-1.511719 1.0625-2.253906.359375-.746094.710938-1.539063 1.105469-2.273437.390625-.734376.839844-1.433594 1.261719-2.144532l.046875-.085937.058593-.082031c.390626-.65625.757813-1.335938 1.183594-1.96875.421875-.628907.992188-1.285157 1.488282-1.957032zm-42.746094 8.902344h20.136718c-1.675781 4.78125-2.824218 9.730469-3.421874 14.761719v.125c0 .175781-.066407.335937-.082032.511719-.015625.175781 0 .160156 0 .242187-.183594 1.222656-.335937 2.464844-.429687 3.847656-.097657 1.382813-.203125 2.984375-.203125 4.511719.027344 4.972656.535156 9.933594 1.511718 14.808594.226563.886718.449219 1.777344.722657 2.664062.023437.140625.054687.285156.09375.421875 2.003906 7.871094 5.324219 15.347657 9.824219 22.105469h-28.152344zm-2.796875 86.320312c.761719-3.679687 4-6.320312 7.757812-6.320312h37.839844c26.359375 21.332031 64.042969 21.332031 90.402344 0h37.839843c3.777344.03125 7.019532 2.699219 7.773438 6.398438l27.320312 129.601562h-38.136718v-96c0-4.417969-3.582032-8-8-8-4.417969 0-8 3.582031-8 8v282.089844c-16.242188-13.453125-39.753906-13.453125-56 0v-114.089844c0-4.417969-3.582032-8-8-8-4.417969 0-8 3.582031-8 8v114.089844c-16.242188-13.453125-39.753906-13.453125-56 0v-282.089844c0-4.417969-3.582032-8-8-8-4.417969 0-8 3.582031-8 8v96h-38.136719zm-5.203125 161.679688c-10.132813-.03125-19.148438-6.441406-22.511719-16h38.511719v16zm32.289062 184c1.992188-13.773438 13.796875-23.996094 27.710938-23.996094 13.917968 0 25.722656 10.222656 27.714844 23.996094zm72 0c1.992188-13.773438 13.796875-23.996094 27.710938-23.996094 13.917968 0 25.722656 10.222656 27.714844 23.996094zm87.710938-184h-16v-16h38.511718c-3.359374 9.558594-12.375 15.96875-22.511718 16zm0 0"/><path d="m88.496094 384h24c4.417968 0 8-3.582031 8-8s-3.582032-8-8-8h-24c-4.417969 0-8 3.582031-8 8s3.582031 8 8 8zm0 0"/><path d="m184.496094 368h-24c-4.417969 0-8 3.582031-8 8s3.582031 8 8 8h24c4.417968 0 8-3.582031 8-8s-3.582032-8-8-8zm0 0"/><path d="m88.496094 312h96c4.417968 0 8-3.582031 8-8v-128c0-4.417969-3.582032-8-8-8h-96c-4.417969 0-8 3.582031-8 8v128c0 4.417969 3.582031 8 8 8zm8-128h80v112h-80zm0 0"/><path d="m124.496094 256c11.046875 0 20-8.953125 20-20s-8.953125-20-20-20c-11.042969 0-20 8.953125-20 20s8.957031 20 20 20zm0-24c2.210937 0 4 1.789062 4 4s-1.789063 4-4 4c-2.207032 0-4-1.789062-4-4s1.792968-4 4-4zm0 0"/><path d="m160.496094 192c-4.417969 0-8 3.582031-8 8v72h-40c-4.417969 0-8 3.582031-8 8s3.582031 8 8 8h48c4.417968 0 8-3.582031 8-8v-80c0-4.417969-3.582032-8-8-8zm0 0"/><path d="m112.496094 208h24c4.417968 0 8-3.582031 8-8s-3.582032-8-8-8h-24c-4.417969 0-8 3.582031-8 8s3.582031 8 8 8zm0 0"/><path d="m176.496094 360c4.417968 0 8-3.582031 8-8s-3.582032-8-8-8h-8c-4.417969 0-8 3.582031-8 8s3.582031 8 8 8zm0 0"/><path d="m96.496094 344c-4.417969 0-8 3.582031-8 8s3.582031 8 8 8h8c4.417968 0 8-3.582031 8-8s-3.582032-8-8-8zm0 0"/><path d="m176.496094 392h-8c-4.417969 0-8 3.582031-8 8s3.582031 8 8 8h8c4.417968 0 8-3.582031 8-8s-3.582032-8-8-8zm0 0"/><path d="m104.496094 392h-8c-4.417969 0-8 3.582031-8 8s3.582031 8 8 8h8c4.417968 0 8-3.582031 8-8s-3.582032-8-8-8zm0 0"/></g></svg>