<svg height="495pt" viewBox="0 0 495.94143 495" width="495pt" xmlns="http://www.w3.org/2000/svg" xmlns:xlink="http://www.w3.org/1999/xlink"><linearGradient id="a"><stop offset="0" stop-color="#003f8a"/><stop offset=".518" stop-color="#00d7df"/><stop offset="1" stop-color="#006df0"/></linearGradient><linearGradient id="b" gradientUnits="userSpaceOnUse" x1="60.389694" x2="521.693694" xlink:href="#a" y1="515.316409" y2="54.012409"/><linearGradient id="c" gradientUnits="userSpaceOnUse" x1="-135.322306" x2="325.973694" xlink:href="#a" y1="319.596409" y2="-141.699591"/><linearGradient id="d" gradientUnits="userSpaceOnUse" x1="-79.322306" x2="381.973694" xlink:href="#a" y1="375.596409" y2="-85.699591"/><linearGradient id="e" gradientUnits="userSpaceOnUse" x1="-119.322306" x2="341.973694" xlink:href="#a" y1="335.596409" y2="-125.699591"/><linearGradient id="f" gradientUnits="userSpaceOnUse" x1="-55.322306" x2="405.973694" xlink:href="#a" y1="399.596409" y2="-61.699591"/><linearGradient id="g" gradientUnits="userSpaceOnUse" x1="-143.322306" x2="317.973694" xlink:href="#a" y1="311.596409" y2="-149.699591"/><linearGradient id="h" gradientUnits="userSpaceOnUse" x1="-189.322306" x2="271.973694" xlink:href="#a" y1="265.596409" y2="-195.699591"/><linearGradient id="i" gradientUnits="userSpaceOnUse" x1="-127.322306" x2="333.973694" xlink:href="#a" y1="327.596409" y2="-133.699591"/><linearGradient id="j" gradientUnits="userSpaceOnUse" x1="-125.322306" x2="335.973694" xlink:href="#a" y1="329.596409" y2="-131.699591"/><linearGradient id="k" gradientUnits="userSpaceOnUse" x1="-167.322306" x2="293.973694" xlink:href="#a" y1="287.596409" y2="-173.699591"/><linearGradient id="l" gradientUnits="userSpaceOnUse" x1="-51.322306" x2="409.973694" xlink:href="#a" y1="403.596409" y2="-57.699591"/><linearGradient id="m" gradientUnits="userSpaceOnUse" x1="-39.322306" x2="421.973694" xlink:href="#a" y1="415.596409" y2="-45.699591"/><path d="m466.445312 228.035156c-42.332031-62.546875-120.535156-90.136718-192.742187-68-14.742187-37.402344-52.964844-60.0625-92.855469-55.042968-39.890625 5.015624-71.308594 36.433593-76.328125 76.324218s17.632813 78.109375 55.039063 92.855469c-5.058594 16.253906-7.636719 33.179687-7.65625 50.199219 0 2.816406.085937 5.707031.246094 8.296875v.167969c3.582031 72.675781 52.507812 135.238281 122.179687 156.226562 69.671875 20.992188 145.011719-4.132812 188.140625-62.738281 43.132812-58.605469 44.71875-138.007813 3.960938-198.289063zm-85.335937-48.605468c.921875.359374 1.855469.6875 2.769531 1.0625 1.527344.632812 3.039063 1.296874 4.542969 1.976562 2.152344.976562 4.273437 2.007812 6.398437 3.078125 1.449219.746094 2.898438 1.480469 4.320313 2.265625 2.136719 1.175781 4.226563 2.398438 6.304687 3.703125 1.3125.800781 2.632813 1.601563 3.921876 2.402344 2.253906 1.46875 4.4375 3.046875 6.621093 4.636719 1.027344.761718 2.089844 1.464843 3.097657 2.242187 3.136718 2.398437 6.199218 4.933594 9.152343 7.582031.335938.296875.640625.632813.96875.9375 2.597657 2.398438 5.132813 4.800782 7.574219 7.375.976562 1.015625 1.878906 2.089844 2.824219 3.136719 1.726562 1.902344 3.449219 3.824219 5.089843 5.816406 1.023438 1.246094 1.992188 2.550781 2.980469 3.832031.992188 1.28125 1.898438 2.535157 2.824219 3.816407l-13.4375 26.894531-24.359375-18.214844c-1.386719-1.039062-3.070313-1.601562-4.800781-1.601562h-28.6875l-17.714844-17.734375zm-261.207031 12.941406c.042968-35.820313 26.410156-66.160156 61.871094-71.199219 35.464843-5.039063 69.242187 16.761719 79.257812 51.152344 1.914062 6.511719 2.878906 13.261719 2.871094 20.046875 0 .945312-.105469 1.867187-.144532 2.800781-18.660156-6.699219-39.519531-1.167969-52.40625 13.902344-12.886718 15.070312-15.113281 36.535156-5.59375 53.929687-11.292968 2.242188-22.960937 1.722656-34.007812-1.511718-30.660156-9.046876-51.742188-37.152344-51.847656-69.121094zm141.382812 18.96875c-5.707031 20.753906-20.375 37.878906-40 46.710937-7.925781-11.902343-6.976562-27.625 2.328125-38.488281 9.300781-10.863281 24.691407-14.222656 37.671875-8.222656zm-93.0625 104.234375c.085938-1.539063.167969-3.066407.296875-4.59375.191407-2.265625.460938-4.519531.75-6.761719.183594-1.398438.335938-2.796875.550781-4.191406.394532-2.488282.890626-4.949219 1.402344-7.414063.230469-1.113281.414063-2.25.679688-3.359375.800781-3.5625 1.757812-7.097656 2.839844-10.59375 1.039062.207032 2.09375.296875 3.136718.464844 1.039063.167969 1.933594.3125 2.917969.429688 13.597656 1.882812 27.445313.40625 40.335937-4.300782.273438-.089844.519532-.175781.800782-.289062 29.0625-10.59375 50.449218-35.636719 56.367187-66v-.199219c1.046875-5.402344 1.582031-10.890625 1.601563-16.394531 0-1.597656-.046875-3.199219-.136719-4.796875l32.136719 32.109375v81.945312l-48.753906 62.679688-57.597657-57.601563c-2.4375-2.433593-6.160156-3.039062-9.242187-1.496093l-28.230469 14.144531c.046875-1.246094.078125-2.511719.144531-3.78125zm276.0625 107.886719c-.839844 1.03125-1.679687 2.0625-2.542968 3.0625-1.214844 1.410156-2.472657 2.769531-3.726563 4.121093-.851563.917969-1.691406 1.855469-2.5625 2.742188-1.398437 1.441406-2.839844 2.816406-4.289063 4.1875-.796874.75-1.597656 1.535156-2.398437 2.261719-1.945313 1.777343-3.953125 3.488281-5.984375 5.160156-.335938.273437-.65625.578125-.992188.847656-2.394531 1.925781-4.835937 3.792969-7.320312 5.601562-.800781.550782-1.597656 1.054688-2.398438 1.597657-1.730468 1.195312-3.464843 2.402343-5.242187 3.496093-1.023437.640626-2.0625 1.234376-3.09375 1.847657-1.601563.953125-3.199219 1.90625-4.800781 2.792969-1.121094.617187-2.265625 1.191406-3.40625 1.785156-1.601563.800781-3.160156 1.597656-4.800782 2.398437-1.191406.570313-2.402343 1.097657-3.609374 1.601563-1.597657.703125-3.199219 1.398437-4.800782 2.046875-1.246094.503906-2.496094.984375-3.75 1.457031-1.601562.609375-3.234375 1.1875-4.90625 1.742188-1.277344.421874-2.5625.835937-3.847656 1.242187-1.664062.511719-3.34375.984375-5.023438 1.4375-1.296874.355469-2.582031.707031-3.886718 1.027344-1.738282.414062-3.488282.796875-5.25 1.160156-1.269532.261719-2.535156.535156-3.816406.796875-1.847657.335938-3.71875.609375-5.597657.882812-1.207031.175782-2.402343.375-3.625.519532-2.070312.246094-4.175781.414062-6.273437.582031-1.023438.082031-2.039063.210937-3.0625.265625-3.085938.164062-6.214844.246094-9.375.246094-4.3125 0-8.59375-.222656-12.800782-.566406-1.34375-.105469-2.679687-.289063-4-.433594-2.9375-.3125-5.863281-.695313-8.800781-1.175782-1.488281-.246093-2.976562-.527343-4.464843-.800781-2.8125-.550781-5.597657-1.199219-8.398438-1.910156-1.375-.351563-2.761719-.679687-4.121094-1.070313-.589844-.167968-1.160156-.394531-1.742187-.570312l14.855469-20.800781c1.472656-2.066407 1.875-4.710938 1.085937-7.125-.789063-2.410157-2.675781-4.304688-5.085937-5.105469l-18.527344-6.207031v-20.152344l128-35.5625v29.480469c0 4.078125 3.066406 7.503906 7.121094 7.953125l39.453124 4.398437c-.71875.921875-1.445312 1.839844-2.191406 2.738282zm12.542969-17.6875-40.925781-4.5625v-32.839844c0-2.5-1.167969-4.859375-3.160156-6.371094-1.988282-1.515625-4.574219-2.011719-6.984376-1.339844l-144 40c-3.464843.964844-5.859374 4.117188-5.855468 7.710938v32c.003906 3.441406 2.207031 6.496094 5.472656 7.585937l13.71875 4.582031-11.191406 15.699219c-53.910156-22.339843-90.734375-73.027343-95.3125-131.203125l29.761718-14.910156 59.917969 59.917969c1.496094 1.488281 3.519531 2.328125 5.632813 2.328125h.496094c2.289062-.140625 4.40625-1.261719 5.816406-3.070313l56-72c1.09375-1.410156 1.691406-3.144531 1.6875-4.929687v-88c0-2.121094-.84375-4.15625-2.34375-5.65625l-37.945313-37.941406c25.789063-6.175782 52.730469-5.660157 78.265625 1.496093l-21.257812 46.789063c-1.386719 3.03125-.75 6.605468 1.601562 8.96875l24 24c1.503906 1.507812 3.550782 2.351562 5.679688 2.34375h29.335937l29.863281 22.402344c1.386719 1.039062 3.070313 1.597656 4.800782 1.597656.617187 0 1.230468-.070313 1.832031-.207032 2.3125-.542968 4.265625-2.089843 5.328125-4.214843l13.429688-26.863281c27.132812 49.066406 25.734374 108.941406-3.664063 156.6875zm0 0" fill="url(#b)"/><path d="m37.558594 170.714844-24-24c-3.140625-3.03125-8.128906-2.988282-11.214844.097656s-3.128906 8.078125-.097656 11.214844l24 24c2.007812 2.082031 4.984375 2.914062 7.78125 2.183594 2.796875-.734376 4.980468-2.917969 5.710937-5.714844.734375-2.796875-.101562-5.769532-2.179687-7.78125zm0 0" fill="url(#c)"/><path d="m53.558594 186.714844c-3.140625-3.03125-8.128906-2.988282-11.214844.097656s-3.128906 8.078125-.097656 11.214844l56 56c3.136718 3.03125 8.128906 2.988281 11.214844-.097656 3.085937-3.085938 3.128906-8.074219.097656-11.214844zm0 0" fill="url(#d)"/><path d="m202.246094 54.027344c3.136718 3.03125 8.128906 2.988281 11.214844-.097656 3.085937-3.085938 3.128906-8.074219.097656-11.214844l-40-40c-3.140625-3.03125-8.128906-2.988282-11.214844.097656s-3.128906 8.078125-.097656 11.214844zm0 0" fill="url(#e)"/><path d="m266.246094 118.027344c3.136718 3.03125 8.128906 2.988281 11.214844-.097656 3.085937-3.085938 3.128906-8.074219.097656-11.214844l-40-40c-3.140625-3.03125-8.128906-2.988282-11.214844.097656s-3.128906 8.078125-.097656 11.214844zm0 0" fill="url(#f)"/><path d="m154.246094 86.027344c3.136718 3.03125 8.128906 2.988281 11.214844-.097656 3.085937-3.085938 3.128906-8.074219.097656-11.214844l-72-72c-3.140625-3.03125-8.128906-2.988282-11.214844.097656s-3.128906 8.078125-.097656 11.214844zm0 0" fill="url(#g)"/><path d="m62.246094 74.027344c3.136718 3.03125 8.128906 2.988281 11.214844-.097656 3.085937-3.085938 3.128906-8.074219.097656-11.214844l-60-60c-3.140625-3.03125-8.128906-2.988282-11.214844.097656s-3.128906 8.078125-.097656 11.214844zm0 0" fill="url(#h)"/><path d="m106.246094 118.027344c3.136718 3.03125 8.128906 2.988281 11.214844-.097656 3.085937-3.085938 3.128906-8.074219.097656-11.214844l-24-24c-3.140625-3.03125-8.128906-2.988282-11.214844.097656s-3.128906 8.078125-.097656 11.214844zm0 0" fill="url(#i)"/><path d="m58.246094 114.714844c-3.125 3.125-3.125 8.191406 0 11.3125l20 20c3.136718 3.03125 8.128906 2.988281 11.214844-.097656 3.085937-3.085938 3.128906-8.074219.097656-11.214844l-20-20c-3.125-3.121094-8.1875-3.121094-11.3125 0zm0 0" fill="url(#j)"/><path d="m10.246094 74.714844c-3.125 3.125-3.125 8.191406 0 11.3125l24 24c2.007812 2.082031 4.984375 2.914062 7.78125 2.183594 2.796875-.734376 4.980468-2.917969 5.710937-5.714844.734375-2.796875-.101562-5.769532-2.179687-7.78125l-24-24c-3.125-3.121094-8.1875-3.121094-11.3125 0zm0 0" fill="url(#k)"/><path d="m191.902344 192.371094c0-17.671875-14.328125-32-32-32s-32 14.328125-32 32c0 17.675781 14.328125 32 32 32s32-14.324219 32-32zm-32 16c-8.835938 0-16-7.164063-16-16 0-8.835938 7.164062-16 16-16 8.835937 0 16 7.164062 16 16 0 8.835937-7.164063 16-16 16zm0 0" fill="url(#l)"/><path d="m215.902344 184.371094c13.253906 0 24-10.742188 24-24 0-13.253906-10.746094-24-24-24s-24 10.746094-24 24c0 13.257812 10.746094 24 24 24zm0-32c4.417968 0 8 3.582031 8 8 0 4.417968-3.582032 8-8 8-4.417969 0-8-3.582032-8-8 0-4.417969 3.582031-8 8-8zm0 0" fill="url(#m)"/></svg>