<svg height="496pt" viewBox="0 0 496 496.08523" width="496pt" xmlns="http://www.w3.org/2000/svg"><path d="m488.082031 247.867188c0 132.546874-107.453125 240-240 240-132.550781 0-240-107.453126-240-240 0-132.546876 107.449219-240 240-240 63.847657-.648438 125.269531 24.429687 170.417969 69.578124 45.152344 45.152344 70.230469 106.574219 69.582031 170.421876zm0 0" fill="#ffda44"/><path d="m200.082031 111.867188c0 17.671874-14.328125 32-32 32-17.675781 0-32-14.328126-32-32 0-17.671876 14.324219-32 32-32 17.671875 0 32 14.328124 32 32zm0 0" fill="#cca400"/><path d="m482.882812 297.628906c-10.800781 51.34375-38.25 97.6875-78.082031 131.839844-33.21875-8.226562-57.53125-36.667969-60.480469-70.765625-2.945312-34.097656 16.121094-66.292969 47.4375-80.097656 31.316407-13.800781 67.945313-6.15625 91.125 19.023437zm0 0" fill="#cca400"/><path d="m240.082031 279.867188c0 30.929687-25.074219 56-56 56-30.929687 0-56-25.070313-56-56 0-30.929688 25.070313-56 56-56 30.925781 0 56 25.070312 56 56zm0 0" fill="#cca400"/><path d="m352.082031 151.867188c0 8.835937-7.164062 16-16 16-8.835937 0-16-7.164063-16-16 0-8.835938 7.164063-16 16-16 8.835938 0 16 7.164062 16 16zm0 0" fill="#cca400"/><g fill="#231f20"><path d="m168.082031 71.867188c-22.09375 0-40 17.910156-40 40 0 22.089843 17.90625 40 40 40 22.089844 0 40-17.910157 40-40-.027343-22.082032-17.921875-39.972657-40-40zm0 64c-13.257812 0-24-10.746094-24-24 0-13.253907 10.742188-24 24-24 13.253907 0 24 10.746093 24 24 0 13.253906-10.746093 24-24 24zm0 0"/><path d="m490.703125 299.25c3.59375-16.890625 5.398437-34.113281 5.378906-51.382812-.066406-118.5-83.953125-220.402344-200.238281-243.222657-116.28125-22.824219-232.464844 39.808594-277.316406 149.496094-1.5625 1.496094-2.445313 3.5625-2.445313 5.726563 0 .113281.054688.199218.0625.3125-33.027343 87.125-14.429687 185.410156 48.140625 254.449218 62.574219 69.042969 158.5625 97.179688 248.507813 72.855469 89.945312-24.328125 158.664062-97.019531 177.902343-188.183594v-.050781zm-474.621094-51.382812c0-16.132813 1.683594-32.21875 5.023438-48h186.976562c4.417969 0 8-3.582032 8-8 0-4.417969-3.582031-8-8-8h-182.953125c1.558594-5.40625 3.25-10.761719 5.175782-16h73.777343c4.417969 0 8-3.582032 8-8 0-4.417969-3.582031-8-8-8h-67.121093c47.835937-105.34375 165.992187-159.320313 276.9375-126.519532 110.949218 32.800782 180.757812 142.347656 163.621093 256.765625-26.925781-20.628906-63.3125-23.929687-93.515625-8.488281-30.199218 15.445312-48.824218 46.878906-47.863281 80.785156s21.335937 64.238282 52.363281 77.945313c-70.105468 53.484375-164.492187 62.5625-243.507812 23.421875-79.019532-39.144532-128.984375-119.730469-128.914063-207.910156zm455.941407 60.0625c-.703126 2.609374-1.335938 5.242187-2.125 7.824218-1.050782 3.433594-2.28125 6.792969-3.488282 10.160156-.847656 2.402344-1.601562 4.753907-2.527344 7.082032-1.480468 3.734375-3.203124 7.375-4.800781 11.015625-.863281 1.894531-1.601562 3.832031-2.546875 5.703125-5.382812 10.964844-11.617187 21.492187-18.644531 31.480468-1.097656 1.550782-2.3125 3.007813-3.441406 4.535157-2.511719 3.382812-5.023438 6.769531-7.71875 10.015625-1.488281 1.800781-3.105469 3.488281-4.65625 5.242187-2.496094 2.839844-4.984375 5.6875-7.625 8.398438-1.785157 1.824219-3.679688 3.542969-5.519531 5.320312-2.066407 1.976563-4.136719 3.953125-6.273438 5.855469-28.433594-8.832031-48.496094-34.253906-50.476562-63.960938-1.984376-29.707031 14.519531-57.570312 41.527343-70.105468 27.007813-12.535156 58.941407-7.152344 80.351563 13.539062-.640625 2.648438-1.335938 5.273438-2.035156 7.894532zm0 0"/><path d="m248.082031 279.867188c0-35.347657-28.65625-64-64-64-35.347656 0-64 28.652343-64 64 0 35.347656 28.652344 64 64 64 35.328125-.039063 63.960938-28.671876 64-64zm-64 48c-26.511719 0-48-21.492188-48-48 0-26.507813 21.488281-48 48-48 26.507813 0 48 21.492187 48 48-.027343 26.5-21.503906 47.972656-48 48zm0 0"/><path d="m288.082031 215.867188h128c4.417969 0 8-3.582032 8-8 0-4.417969-3.582031-8-8-8h-128c-4.417969 0-8 3.582031-8 8 0 4.417968 3.582031 8 8 8zm0 0"/><path d="m376.082031 231.867188c0 4.417968 3.582031 8 8 8h64c4.417969 0 8-3.582032 8-8 0-4.417969-3.582031-8-8-8h-64c-4.417969 0-8 3.582031-8 8zm0 0"/><path d="m344.082031 103.867188h24c4.417969 0 8-3.582032 8-8 0-4.417969-3.582031-8-8-8h-24c-4.417969 0-8 3.582031-8 8 0 4.417968 3.582031 8 8 8zm0 0"/><path d="m328.082031 407.867188h-112c-4.417969 0-8 3.582031-8 8 0 4.417968 3.582031 8 8 8h112c4.417969 0 8-3.582032 8-8 0-4.417969-3.582031-8-8-8zm0 0"/><path d="m272.082031 439.867188h-24c-4.417969 0-8 3.582031-8 8 0 4.417968 3.582031 8 8 8h24c4.417969 0 8-3.582032 8-8 0-4.417969-3.582031-8-8-8zm0 0"/><path d="m336.082031 175.867188c13.253907 0 24-10.746094 24-24 0-13.253907-10.746093-24-24-24-13.257812 0-24 10.746093-24 24 0 13.253906 10.742188 24 24 24zm0-32c4.417969 0 8 3.582031 8 8 0 4.417968-3.582031 8-8 8s-8-3.582032-8-8c0-4.417969 3.582031-8 8-8zm0 0"/></g></svg>