<svg id="Layer_1" data-name="Layer 1" xmlns="http://www.w3.org/2000/svg" viewBox="0 0 60 200"><defs><style>.cls-1{fill:#e0e0e0;}.cls-2{fill:#d32927;}.cls-3{fill:#2c275e;}.cls-4{fill:#010101;}.cls-5{fill:#c1272d;}.cls-6{fill:#feea55;}.cls-7{fill:#f47820;}.cls-8{fill:#757575;}.cls-9{fill:#616161;}.cls-10{fill:#fff;}.cls-11{fill:#bdbdbd;}.cls-12{fill:#ef4032;}.cls-13{fill:#615fb2;}.cls-14{fill:#121a27;}.cls-15{fill:#e74724;}.cls-16{fill:#0071bc;}</style></defs><title>rocket</title><rect class="cls-1" x="30" y="66.18" width="4.9" height="4.9"/><rect class="cls-2" x="30" y="178.97" width="4.9" height="4.9"/><rect class="cls-3" x="30" y="7.33" width="4.9" height="4.9"/><rect class="cls-4" x="25.1" y="125.03" width="4.9" height="4.9"/><rect class="cls-5" x="25.1" y="110.31" width="4.9" height="4.9"/><rect class="cls-6" x="25.1" y="139.74" width="4.9" height="4.9"/><rect class="cls-7" x="25.1" y="154.45" width="4.9" height="4.9"/><rect class="cls-2" x="25.1" y="183.88" width="4.9" height="4.9"/><rect class="cls-2" x="25.1" y="169.16" width="4.9" height="4.9"/><rect class="cls-1" x="15.29" y="95.6" width="4.9" height="4.9"/><rect class="cls-8" x="49.62" y="46.56" width="4.9" height="4.9"/><rect class="cls-8" x="49.62" y="75.98" width="4.9" height="4.9"/><rect class="cls-1" x="34.9" y="36.75" width="4.9" height="4.9"/><rect class="cls-9" x="15.29" y="41.66" width="4.9" height="4.9"/><rect class="cls-9" x="15.29" y="56.37" width="4.9" height="4.9"/><rect class="cls-4" x="34.9" y="120.12" width="4.9" height="4.9"/><rect class="cls-9" x="44.71" y="115.22" width="4.9" height="4.9"/><rect class="cls-1" x="44.71" y="100.51" width="4.9" height="4.9"/><rect class="cls-1" x="30" y="51.46" width="4.9" height="4.9"/><rect class="cls-1" x="30" y="80.89" width="4.9" height="4.9"/><rect class="cls-6" x="30" y="149.55" width="4.9" height="4.9"/><rect class="cls-9" x="39.81" y="36.75" width="4.9" height="4.9"/><rect class="cls-10" x="20.19" y="56.37" width="4.9" height="4.9"/><rect class="cls-11" x="20.19" y="41.66" width="4.9" height="4.9"/><rect class="cls-9" x="39.81" y="120.12" width="4.9" height="4.9"/><rect class="cls-3" x="25.1" y="12.23" width="4.9" height="4.9"/><rect class="cls-1" x="25.1" y="26.94" width="4.9" height="4.9"/><rect class="cls-8" x="10.38" y="85.79" width="4.9" height="4.9"/><rect class="cls-8" x="10.38" y="71.08" width="4.9" height="4.9"/><rect class="cls-12" x="10.38" y="134.83" width="4.9" height="4.9"/><rect class="cls-1" x="10.38" y="105.41" width="4.9" height="4.9"/><rect class="cls-8" x="49.62" y="61.27" width="4.9" height="4.9"/><rect class="cls-10" x="20.19" y="95.6" width="4.9" height="4.9"/><rect class="cls-2" x="44.71" y="144.64" width="4.9" height="4.9"/><rect class="cls-4" x="44.71" y="90.7" width="4.9" height="4.9"/><rect class="cls-13" x="44.71" y="31.85" width="4.9" height="4.9"/><rect class="cls-3" x="39.81" y="22.04" width="4.9" height="4.9"/><rect class="cls-7" x="39.81" y="149.55" width="4.9" height="4.9"/><rect class="cls-14" x="30" y="36.75" width="4.9" height="4.9"/><rect class="cls-4" x="39.81" y="80.89" width="4.9" height="4.9"/><rect class="cls-9" x="39.81" y="51.46" width="4.9" height="4.9"/><rect class="cls-4" x="20.19" y="125.03" width="4.9" height="4.9"/><rect class="cls-7" x="20.19" y="139.74" width="4.9" height="4.9"/><rect class="cls-5" x="20.19" y="110.31" width="4.9" height="4.9"/><rect class="cls-7" x="20.19" y="154.45" width="4.9" height="4.9"/><rect class="cls-2" x="20.19" y="169.16" width="4.9" height="4.9"/><rect class="cls-1" x="30" y="120.12" width="4.9" height="4.9"/><rect class="cls-2" x="34.9" y="178.97" width="4.9" height="4.9"/><rect class="cls-13" x="34.9" y="7.33" width="4.9" height="4.9"/><rect class="cls-11" x="34.9" y="66.18" width="4.9" height="4.9"/><rect class="cls-4" x="49.62" y="100.51" width="4.9" height="4.9"/><rect class="cls-9" x="49.62" y="115.22" width="4.9" height="4.9"/><rect class="cls-3" x="15.29" y="26.94" width="4.9" height="4.9"/><rect class="cls-13" x="15.29" y="12.23" width="4.9" height="4.9"/><rect class="cls-11" x="44.71" y="75.98" width="4.9" height="4.9"/><rect class="cls-11" x="44.71" y="46.56" width="4.9" height="4.9"/><rect class="cls-4" x="0.58" y="105.41" width="4.9" height="4.9"/><rect class="cls-3" x="20.19" y="12.23" width="4.9" height="4.9"/><rect class="cls-1" x="20.19" y="26.94" width="4.9" height="4.9"/><rect class="cls-9" x="39.81" y="66.18" width="4.9" height="4.9"/><rect class="cls-2" x="39.81" y="178.97" width="4.9" height="4.9"/><rect class="cls-1" x="25.1" y="56.37" width="4.9" height="4.9"/><rect class="cls-1" x="25.1" y="41.66" width="4.9" height="4.9"/><rect class="cls-1" x="5.48" y="105.41" width="4.9" height="4.9"/><rect class="cls-11" x="5.48" y="85.79" width="4.9" height="4.9"/><rect class="cls-11" x="5.48" y="71.08" width="4.9" height="4.9"/><rect class="cls-1" x="34.9" y="80.89" width="4.9" height="4.9"/><rect class="cls-11" x="34.9" y="51.46" width="4.9" height="4.9"/><rect class="cls-3" x="34.9" y="22.04" width="4.9" height="4.9"/><rect class="cls-7" x="34.9" y="149.55" width="4.9" height="4.9"/><rect class="cls-1" x="25.1" y="95.6" width="4.9" height="4.9"/><rect class="cls-2" x="15.29" y="169.16" width="4.9" height="4.9"/><rect class="cls-2" x="15.29" y="154.45" width="4.9" height="4.9"/><rect class="cls-1" x="15.29" y="110.31" width="4.9" height="4.9"/><rect class="cls-15" x="15.29" y="139.74" width="4.9" height="4.9"/><rect class="cls-4" x="15.29" y="125.03" width="4.9" height="4.9"/><rect class="cls-8" x="49.62" y="31.85" width="4.9" height="4.9"/><rect class="cls-8" x="49.62" y="90.7" width="4.9" height="4.9"/><rect class="cls-11" x="44.71" y="61.27" width="4.9" height="4.9"/><rect class="cls-4" x="54.52" y="105.41" width="4.9" height="4.9"/><rect class="cls-13" x="25.1" y="2.42" width="4.9" height="4.9"/><rect class="cls-3" x="25.1" y="17.14" width="4.9" height="4.9"/><rect class="cls-4" x="30" y="129.93" width="4.9" height="4.9"/><rect class="cls-1" x="30" y="90.7" width="4.9" height="4.9"/><rect class="cls-6" x="30" y="144.64" width="4.9" height="4.9"/><rect class="cls-14" x="30" y="31.85" width="4.9" height="4.9"/><rect class="cls-9" x="39.81" y="46.56" width="4.9" height="4.9"/><rect class="cls-9" x="39.81" y="75.98" width="4.9" height="4.9"/><rect class="cls-11" x="44.71" y="51.46" width="4.9" height="4.9"/><rect class="cls-11" x="44.71" y="80.89" width="4.9" height="4.9"/><rect class="cls-2" x="44.71" y="149.55" width="4.9" height="4.9"/><rect class="cls-13" x="44.71" y="22.04" width="4.9" height="4.9"/><rect class="cls-12" x="10.38" y="139.74" width="4.9" height="4.9"/><rect class="cls-1" x="10.38" y="110.31" width="4.9" height="4.9"/><rect class="cls-2" x="10.38" y="154.45" width="4.9" height="4.9"/><rect class="cls-2" x="15.29" y="164.26" width="4.9" height="4.9"/><rect class="cls-11" x="34.9" y="61.27" width="4.9" height="4.9"/><rect class="cls-2" x="25.1" y="188.78" width="4.9" height="4.9"/><rect class="cls-10" x="25.1" y="71.08" width="4.9" height="4.9"/><rect class="cls-1" x="25.1" y="85.79" width="4.9" height="4.9"/><rect class="cls-5" x="25.1" y="105.41" width="4.9" height="4.9"/><rect class="cls-6" x="25.1" y="134.83" width="4.9" height="4.9"/><rect class="cls-11" x="5.48" y="41.66" width="4.9" height="4.9"/><rect class="cls-11" x="5.48" y="56.37" width="4.9" height="4.9"/><rect class="cls-1" x="30" y="115.22" width="4.9" height="4.9"/><rect class="cls-2" x="30" y="174.07" width="4.9" height="4.9"/><rect class="cls-1" x="30" y="100.51" width="4.9" height="4.9"/><rect class="cls-7" x="30" y="159.36" width="4.9" height="4.9"/><rect class="cls-2" x="20.19" y="164.26" width="4.9" height="4.9"/><rect class="cls-9" x="39.81" y="61.27" width="4.9" height="4.9"/><rect class="cls-11" x="44.71" y="66.18" width="4.9" height="4.9"/><rect class="cls-13" x="10.38" y="26.94" width="4.9" height="4.9"/><rect class="cls-8" x="49.62" y="36.75" width="4.9" height="4.9"/><rect class="cls-11" x="5.48" y="95.6" width="4.9" height="4.9"/><rect class="cls-1" x="34.9" y="75.98" width="4.9" height="4.9"/><rect class="cls-11" x="34.9" y="46.56" width="4.9" height="4.9"/><rect class="cls-1" x="5.48" y="110.31" width="4.9" height="4.9"/><rect class="cls-1" x="39.81" y="100.51" width="4.9" height="4.9"/><rect class="cls-2" x="39.81" y="174.07" width="4.9" height="4.9"/><rect class="cls-1" x="39.81" y="115.22" width="4.9" height="4.9"/><rect class="cls-3" x="20.19" y="17.14" width="4.9" height="4.9"/><rect class="cls-2" x="39.81" y="159.36" width="4.9" height="4.9"/><rect class="cls-1" x="30" y="61.27" width="4.9" height="4.9"/><rect class="cls-4" x="54.52" y="110.31" width="4.9" height="4.9"/><rect class="cls-6" x="34.9" y="129.93" width="4.9" height="4.9"/><rect class="cls-1" x="34.9" y="90.7" width="4.9" height="4.9"/><rect class="cls-7" x="34.9" y="144.64" width="4.9" height="4.9"/><rect class="cls-1" x="34.9" y="31.85" width="4.9" height="4.9"/><rect class="cls-8" x="49.62" y="51.46" width="4.9" height="4.9"/><rect class="cls-8" x="49.62" y="80.89" width="4.9" height="4.9"/><rect class="cls-15" x="15.29" y="134.83" width="4.9" height="4.9"/><rect class="cls-1" x="15.29" y="105.41" width="4.9" height="4.9"/><rect class="cls-4" x="15.29" y="85.79" width="4.9" height="4.9"/><rect class="cls-9" x="15.29" y="71.08" width="4.9" height="4.9"/><rect class="cls-4" x="10.38" y="95.6" width="4.9" height="4.9"/><rect class="cls-7" x="25.1" y="164.26" width="4.9" height="4.9"/><rect class="cls-11" x="5.48" y="26.94" width="4.9" height="4.9"/><rect class="cls-10" x="20.19" y="71.08" width="4.9" height="4.9"/><rect class="cls-10" x="20.19" y="85.79" width="4.9" height="4.9"/><rect class="cls-2" x="20.19" y="105.41" width="4.9" height="4.9"/><rect class="cls-7" x="20.19" y="134.83" width="4.9" height="4.9"/><rect class="cls-9" x="39.81" y="31.85" width="4.9" height="4.9"/><rect class="cls-4" x="39.81" y="90.7" width="4.9" height="4.9"/><rect class="cls-7" x="39.81" y="144.64" width="4.9" height="4.9"/><rect class="cls-7" x="39.81" y="129.93" width="4.9" height="4.9"/><rect class="cls-1" x="30" y="75.98" width="4.9" height="4.9"/><rect class="cls-1" x="30" y="46.56" width="4.9" height="4.9"/><rect class="cls-4" x="44.71" y="120.12" width="4.9" height="4.9"/><rect class="cls-11" x="44.71" y="36.75" width="4.9" height="4.9"/><rect class="cls-4" x="0.58" y="110.31" width="4.9" height="4.9"/><rect class="cls-7" x="34.9" y="159.36" width="4.9" height="4.9"/><rect class="cls-2" x="34.9" y="174.07" width="4.9" height="4.9"/><rect class="cls-1" x="34.9" y="115.22" width="4.9" height="4.9"/><rect class="cls-1" x="34.9" y="100.51" width="4.9" height="4.9"/><rect class="cls-13" x="15.29" y="17.14" width="4.9" height="4.9"/><rect class="cls-8" x="49.62" y="66.18" width="4.9" height="4.9"/><rect class="cls-8" x="10.38" y="56.37" width="4.9" height="4.9"/><rect class="cls-8" x="10.38" y="41.66" width="4.9" height="4.9"/><rect class="cls-1" x="49.62" y="110.31" width="4.9" height="4.9"/><rect class="cls-9" x="15.29" y="31.85" width="4.9" height="4.9"/><rect class="cls-4" x="15.29" y="90.7" width="4.9" height="4.9"/><rect class="cls-12" x="15.29" y="144.64" width="4.9" height="4.9"/><rect class="cls-15" x="15.29" y="129.93" width="4.9" height="4.9"/><rect class="cls-16" x="34.9" y="105.41" width="4.9" height="4.9"/><rect class="cls-6" x="34.9" y="134.83" width="4.9" height="4.9"/><rect class="cls-2" x="34.9" y="188.78" width="4.9" height="4.9"/><rect class="cls-1" x="34.9" y="71.08" width="4.9" height="4.9"/><rect class="cls-1" x="34.9" y="85.79" width="4.9" height="4.9"/><rect class="cls-7" x="30" y="164.26" width="4.9" height="4.9"/><rect class="cls-2" x="30" y="193.68" width="4.9" height="4.9"/><rect class="cls-13" x="39.81" y="17.14" width="4.9" height="4.9"/><rect class="cls-12" x="20.19" y="159.36" width="4.9" height="4.9"/><rect class="cls-1" x="20.19" y="115.22" width="4.9" height="4.9"/><rect class="cls-2" x="20.19" y="174.07" width="4.9" height="4.9"/><rect class="cls-1" x="20.19" y="100.51" width="4.9" height="4.9"/><rect class="cls-11" x="5.48" y="80.89" width="4.9" height="4.9"/><rect class="cls-11" x="5.48" y="51.46" width="4.9" height="4.9"/><rect class="cls-1" x="25.1" y="46.56" width="4.9" height="4.9"/><rect class="cls-10" x="25.1" y="75.98" width="4.9" height="4.9"/><rect class="cls-1" x="15.29" y="100.51" width="4.9" height="4.9"/><rect class="cls-1" x="15.29" y="115.22" width="4.9" height="4.9"/><rect class="cls-8" x="49.62" y="26.94" width="4.9" height="4.9"/><rect class="cls-2" x="15.29" y="159.36" width="4.9" height="4.9"/><rect class="cls-4" x="10.38" y="120.12" width="4.9" height="4.9"/><rect class="cls-8" x="10.38" y="36.75" width="4.9" height="4.9"/><rect class="cls-3" x="34.9" y="17.14" width="4.9" height="4.9"/><rect class="cls-11" x="44.71" y="56.37" width="4.9" height="4.9"/><rect class="cls-11" x="44.71" y="41.66" width="4.9" height="4.9"/><rect class="cls-4" x="44.71" y="95.6" width="4.9" height="4.9"/><rect class="cls-7" x="20.19" y="144.64" width="4.9" height="4.9"/><rect class="cls-10" x="20.19" y="90.7" width="4.9" height="4.9"/><rect class="cls-1" x="20.19" y="31.85" width="4.9" height="4.9"/><rect class="cls-6" x="20.19" y="129.93" width="4.9" height="4.9"/><rect class="cls-7" x="39.81" y="134.83" width="4.9" height="4.9"/><rect class="cls-1" x="39.81" y="105.41" width="4.9" height="4.9"/><rect class="cls-4" x="39.81" y="85.79" width="4.9" height="4.9"/><rect class="cls-9" x="39.81" y="71.08" width="4.9" height="4.9"/><rect class="cls-10" x="25.1" y="61.27" width="4.9" height="4.9"/><rect class="cls-11" x="5.48" y="66.18" width="4.9" height="4.9"/><rect class="cls-7" x="34.9" y="164.26" width="4.9" height="4.9"/><rect class="cls-8" x="10.38" y="51.46" width="4.9" height="4.9"/><rect class="cls-8" x="10.38" y="80.89" width="4.9" height="4.9"/><rect class="cls-2" x="10.38" y="149.55" width="4.9" height="4.9"/><rect class="cls-13" x="10.38" y="22.04" width="4.9" height="4.9"/><rect class="cls-9" x="15.29" y="61.27" width="4.9" height="4.9"/><rect class="cls-1" x="44.71" y="110.31" width="4.9" height="4.9"/><rect class="cls-12" x="44.71" y="139.74" width="4.9" height="4.9"/><rect class="cls-2" x="44.71" y="154.45" width="4.9" height="4.9"/><rect class="cls-10" x="20.19" y="75.98" width="4.9" height="4.9"/><rect class="cls-10" x="20.19" y="46.56" width="4.9" height="4.9"/><rect class="cls-16" x="30" y="105.41" width="4.9" height="4.9"/><rect class="cls-6" x="30" y="134.83" width="4.9" height="4.9"/><rect class="cls-2" x="30" y="188.78" width="4.9" height="4.9"/><rect class="cls-1" x="30" y="71.08" width="4.9" height="4.9"/><rect class="cls-1" x="30" y="85.79" width="4.9" height="4.9"/><rect class="cls-7" x="25.1" y="159.36" width="4.9" height="4.9"/><rect class="cls-1" x="25.1" y="100.51" width="4.9" height="4.9"/><rect class="cls-2" x="25.1" y="174.07" width="4.9" height="4.9"/><rect class="cls-1" x="25.1" y="115.22" width="4.9" height="4.9"/><rect class="cls-8" x="10.38" y="66.18" width="4.9" height="4.9"/><rect class="cls-9" x="15.29" y="46.56" width="4.9" height="4.9"/><rect class="cls-9" x="15.29" y="75.98" width="4.9" height="4.9"/><rect class="cls-8" x="49.62" y="56.37" width="4.9" height="4.9"/><rect class="cls-8" x="49.62" y="41.66" width="4.9" height="4.9"/><rect class="cls-13" x="44.71" y="26.94" width="4.9" height="4.9"/><rect class="cls-10" x="20.19" y="61.27" width="4.9" height="4.9"/><rect class="cls-2" x="39.81" y="164.26" width="4.9" height="4.9"/><rect class="cls-3" x="30" y="17.14" width="4.9" height="4.9"/><rect class="cls-13" x="30" y="2.42" width="4.9" height="4.9"/><rect class="cls-8" x="49.62" y="95.6" width="4.9" height="4.9"/><rect class="cls-11" x="5.48" y="36.75" width="4.9" height="4.9"/><rect class="cls-14" x="25.1" y="31.85" width="4.9" height="4.9"/><rect class="cls-6" x="25.1" y="144.64" width="4.9" height="4.9"/><rect class="cls-1" x="25.1" y="90.7" width="4.9" height="4.9"/><rect class="cls-4" x="25.1" y="129.93" width="4.9" height="4.9"/><rect class="cls-1" x="30" y="95.6" width="4.9" height="4.9"/><rect class="cls-4" x="54.52" y="115.22" width="4.9" height="4.9"/><rect class="cls-9" x="15.29" y="66.18" width="4.9" height="4.9"/><rect class="cls-8" x="10.38" y="46.56" width="4.9" height="4.9"/><rect class="cls-8" x="10.38" y="75.98" width="4.9" height="4.9"/><rect class="cls-3" x="34.9" y="12.23" width="4.9" height="4.9"/><rect class="cls-9" x="5.48" y="115.22" width="4.9" height="4.9"/><rect class="cls-4" x="5.48" y="100.51" width="4.9" height="4.9"/><rect class="cls-1" x="30" y="41.66" width="4.9" height="4.9"/><rect class="cls-1" x="30" y="56.37" width="4.9" height="4.9"/><rect class="cls-2" x="39.81" y="169.16" width="4.9" height="4.9"/><rect class="cls-7" x="39.81" y="154.45" width="4.9" height="4.9"/><rect class="cls-4" x="39.81" y="125.03" width="4.9" height="4.9"/><rect class="cls-7" x="39.81" y="139.74" width="4.9" height="4.9"/><rect class="cls-1" x="39.81" y="110.31" width="4.9" height="4.9"/><rect class="cls-7" x="20.19" y="149.55" width="4.9" height="4.9"/><rect class="cls-3" x="20.19" y="22.04" width="4.9" height="4.9"/><rect class="cls-10" x="20.19" y="51.46" width="4.9" height="4.9"/><rect class="cls-10" x="20.19" y="80.89" width="4.9" height="4.9"/><rect class="cls-4" x="0.58" y="115.22" width="4.9" height="4.9"/><rect class="cls-3" x="15.29" y="22.04" width="4.9" height="4.9"/><rect class="cls-12" x="15.29" y="149.55" width="4.9" height="4.9"/><rect class="cls-9" x="15.29" y="51.46" width="4.9" height="4.9"/><rect class="cls-4" x="15.29" y="80.89" width="4.9" height="4.9"/><rect class="cls-8" x="49.62" y="85.79" width="4.9" height="4.9"/><rect class="cls-8" x="49.62" y="71.08" width="4.9" height="4.9"/><rect class="cls-1" x="49.62" y="105.41" width="4.9" height="4.9"/><rect class="cls-8" x="10.38" y="61.27" width="4.9" height="4.9"/><rect class="cls-7" x="34.9" y="154.45" width="4.9" height="4.9"/><rect class="cls-2" x="34.9" y="169.16" width="4.9" height="4.9"/><rect class="cls-2" x="34.9" y="183.88" width="4.9" height="4.9"/><rect class="cls-16" x="34.9" y="110.31" width="4.9" height="4.9"/><rect class="cls-6" x="34.9" y="139.74" width="4.9" height="4.9"/><rect class="cls-4" x="34.9" y="125.03" width="4.9" height="4.9"/><rect class="cls-1" x="25.1" y="120.12" width="4.9" height="4.9"/><rect class="cls-11" x="5.48" y="90.7" width="4.9" height="4.9"/><rect class="cls-11" x="5.48" y="31.85" width="4.9" height="4.9"/><rect class="cls-14" x="25.1" y="36.75" width="4.9" height="4.9"/><rect class="cls-2" x="20.19" y="178.97" width="4.9" height="4.9"/><rect class="cls-13" x="20.19" y="7.33" width="4.9" height="4.9"/><rect class="cls-3" x="39.81" y="26.94" width="4.9" height="4.9"/><rect class="cls-10" x="20.19" y="66.18" width="4.9" height="4.9"/><rect class="cls-13" x="39.81" y="12.23" width="4.9" height="4.9"/><rect class="cls-11" x="34.9" y="41.66" width="4.9" height="4.9"/><rect class="cls-11" x="34.9" y="56.37" width="4.9" height="4.9"/><rect class="cls-9" x="15.29" y="36.75" width="4.9" height="4.9"/><rect class="cls-1" x="10.38" y="100.51" width="4.9" height="4.9"/><rect class="cls-9" x="10.38" y="115.22" width="4.9" height="4.9"/><rect class="cls-9" x="15.29" y="120.12" width="4.9" height="4.9"/><rect class="cls-11" x="5.48" y="75.98" width="4.9" height="4.9"/><rect class="cls-11" x="5.48" y="46.56" width="4.9" height="4.9"/><rect class="cls-1" x="34.9" y="95.6" width="4.9" height="4.9"/><rect class="cls-1" x="25.1" y="22.04" width="4.9" height="4.9"/><rect class="cls-7" x="25.1" y="149.55" width="4.9" height="4.9"/><rect class="cls-10" x="25.1" y="80.89" width="4.9" height="4.9"/><rect class="cls-1" x="25.1" y="51.46" width="4.9" height="4.9"/><rect class="cls-3" x="30" y="12.23" width="4.9" height="4.9"/><rect class="cls-11" x="44.71" y="85.79" width="4.9" height="4.9"/><rect class="cls-11" x="44.71" y="71.08" width="4.9" height="4.9"/><rect class="cls-12" x="44.71" y="134.83" width="4.9" height="4.9"/><rect class="cls-1" x="44.71" y="105.41" width="4.9" height="4.9"/><rect class="cls-1" x="39.81" y="95.6" width="4.9" height="4.9"/><rect class="cls-13" x="10.38" y="31.85" width="4.9" height="4.9"/><rect class="cls-12" x="10.38" y="144.64" width="4.9" height="4.9"/><rect class="cls-4" x="10.38" y="90.7" width="4.9" height="4.9"/><rect class="cls-2" x="25.1" y="178.97" width="4.9" height="4.9"/><rect class="cls-3" x="25.1" y="7.33" width="4.9" height="4.9"/><rect class="cls-10" x="25.1" y="66.18" width="4.9" height="4.9"/><rect class="cls-11" x="5.48" y="61.27" width="4.9" height="4.9"/><rect class="cls-4" x="20.19" y="120.12" width="4.9" height="4.9"/><rect class="cls-9" x="39.81" y="41.66" width="4.9" height="4.9"/><rect class="cls-9" x="39.81" y="56.37" width="4.9" height="4.9"/><rect class="cls-7" x="30" y="154.45" width="4.9" height="4.9"/><rect class="cls-2" x="30" y="183.88" width="4.9" height="4.9"/><rect class="cls-7" x="30" y="169.16" width="4.9" height="4.9"/><rect class="cls-4" x="30" y="125.03" width="4.9" height="4.9"/><rect class="cls-6" x="30" y="139.74" width="4.9" height="4.9"/><rect class="cls-16" x="30" y="110.31" width="4.9" height="4.9"/><rect class="cls-1" x="20.19" y="36.75" width="4.9" height="4.9"/></svg>